<?xml version="1.0" encoding="UTF-8"?>
<!-- Created with Inkscape (http://www.inkscape.org/) -->
<svg width="153.04" height="30.824" version="1.1" xmlns="http://www.w3.org/2000/svg" xmlns:cc="http://creativecommons.org/ns#" xmlns:dc="http://purl.org/dc/elements/1.1/" xmlns:rdf="http://www.w3.org/1999/02/22-rdf-syntax-ns#">
 <metadata>
  <rdf:RDF>
   <cc:Work rdf:about="">
    <dc:format>image/svg+xml</dc:format>
    <dc:type rdf:resource="http://purl.org/dc/dcmitype/StillImage"/>
    <dc:title/>
   </cc:Work>
  </rdf:RDF>
 </metadata>
 <g transform="translate(-292 -690.8)">
  <text x="181.42857" y="169.50504" fill="#000000" font-family="Ubuntu" font-weight="bold" letter-spacing="0px" word-spacing="0px" style="line-height:0%" xml:space="preserve"><tspan x="181.42857" y="169.50504" font-size="40px" style="line-height:1.25"> </tspan></text>
  <text x="378.04877" y="248.29713" fill="#000000" font-family="Ubuntu" font-weight="bold" letter-spacing="0px" word-spacing="0px" style="line-height:0%" xml:space="preserve"><tspan x="378.04877" y="248.29713" font-size="40px" style="line-height:1.25"> </tspan></text>
  <g transform="translate(250 27.039)" fill="#06c">
   <path d="m119.48 674.46c0.39118-0.5134 0.41923-0.4903 0.90518-0.78271 0.55052-0.33125 0.81352-0.48319 1.2597-0.7016 0.44613-0.21841 0.71281-0.39304 1.7805-0.39304h6.996c0.70397 2e-5 1.408 0.29336 2.112 0.88l1.056 0.88c0.70397 0.58669 1.056 1.32 1.056 2.2v18.04h-3.696v-17.116c-3e-5 -0.43998-0.0294-0.71865-0.088-0.836-0.0294-0.14665-0.17603-0.32265-0.44-0.528-0.26403-0.20531-0.46936-0.32265-0.616-0.352-0.14669-0.0586-0.48402-0.088-1.012-0.088h-4.84c-0.52802 2e-5 -0.89469 0.0294-1.1 0.088-0.17602 0.0587-0.52802 0.24935-1.056 0.572-0.67468 0.41069-1.0267 0.79202-1.056 1.144v17.116h-3.696v-17.116c-1e-5 -0.43998-0.0294-0.71865-0.088-0.836-0.0293-0.14665-0.17601-0.32265-0.44-0.528-0.26401-0.20531-0.46934-0.32265-0.616-0.352-0.14668-0.0586-0.48401-0.088-1.012-0.088h-4.444c-0.52801 2e-5 -0.89467 0.0294-1.1 0.088-0.176 0.0587-0.528 0.24935-1.056 0.572-0.528 0.32269-0.836 0.55735-0.924 0.704-0.088 0.14669-0.132 0.44002-0.132 0.88v16.676h-3.696v-17.971c0.0209-0.75554 0.40048-1.2521 2.0054-2.2563s0.20494-0.15352 1.4571-0.89167 1.4384-0.88152 2.3422-0.88152h7.1753c0.70399 2e-5 1.6744 0.2699 2.112 0.88"/>
   <path d="m144.7 694.58h-3.696v-22h3.696v22m0.396-28.864v0.352c0 0.55736-0.0293 0.90936-0.088 1.056-0.0293 0.1467-0.16134 0.3227-0.396 0.528-0.23467 0.2347-0.77733 0.35203-1.628 0.352h-0.22c-0.64533 3e-5 -1.0413-0.0146-1.188-0.044-0.14667-0.0293-0.32266-0.13197-0.528-0.308-0.20533-0.2053-0.33733-0.3813-0.396-0.528-0.0293-0.14664-0.044-0.49864-0.044-1.056v-0.352c0-0.5573 0.0147-0.9093 0.044-1.056 0.0587-0.14663 0.20534-0.32263 0.44-0.528 0.176-0.17597 0.33733-0.27863 0.484-0.308 0.14667-0.0293 0.54267-0.044 1.188-0.044h0.176c0.88 3e-5 1.452 0.11737 1.716 0.352 0.20533 0.20537 0.32266 0.38137 0.352 0.528 0.0587 0.1467 0.088 0.4987 0.088 1.056"/>
   <path d="m163.2 675.66h-6.292c-0.52801 2e-5 -0.86534 0.0294-1.012 0.088-0.14667 0.0294-0.352 0.14669-0.616 0.352-0.264 0.20535-0.42534 0.38135-0.484 0.528-0.0293 0.11735-0.044 0.39602-0.044 0.836v12.232c0 0.44001 0.0147 0.73334 0.044 0.88 0.0587 0.11734 0.22 0.27867 0.484 0.484 0.264 0.20534 0.46933 0.33734 0.616 0.396 0.14666 0.0293 0.48399 0.044 1.012 0.044h6.248c0.52799 1e-5 0.87999-0.0293 1.056-0.088 0.20532-0.0587 0.57199-0.24933 1.1-0.572 0.52798-0.32266 0.83598-0.55733 0.924-0.704 0.088-0.14666 0.13198-0.43999 0.132-0.88v-10.956c-2e-5 -0.58665-0.35202-1.1733-1.056-1.76-0.70401-0.58665-1.408-0.87998-2.112-0.88m-7.92 18.92c-0.704 0-1.408-0.29333-2.112-0.88l-1.056-0.88c-0.704-0.58666-1.056-1.32-1.056-2.2v-14.08c0-0.87998 0.352-1.6133 1.056-2.2l1.056-0.88c0.704-0.58664 1.408-0.87998 2.112-0.88l7.7221-0.0109c1.4058-0.0381 2.4586 0.72603 3.3511 1.628l0.0108-10.441h3.6806l-0.0253 26.806c-1e-3 1.5248-0.44966 1.8148-1.2044 2.3472-0.75473 0.53242-0.79375 0.62885-1.3022 0.94751s-1.1635 0.72347-1.6915 0.72347"/>
   <path d="m180.25 672.58h10.56c0.70399 2e-5 1.408 0.29336 2.112 0.88l1.056 0.88c0.70398 0.58669 1.056 1.32 1.056 2.2v14.08c-2e-5 0.88001-0.35202 1.6133-1.056 2.2l-1.056 0.88c-0.70401 0.58667-1.408 0.88-2.112 0.88h-10.56c-0.704 0-1.408-0.29333-2.112-0.88l-1.056-0.88c-0.704-0.58666-1.056-1.32-1.056-2.2v-14.08c0-0.87998 0.352-1.6133 1.056-2.2l1.056-0.88c0.704-0.58664 1.408-0.87998 2.112-0.88m11.088 17.116v-12.232c-1e-5 -0.43998-0.0293-0.71865-0.088-0.836-0.0294-0.14665-0.17601-0.32265-0.44-0.528-0.26401-0.20531-0.46935-0.32265-0.616-0.352-0.14668-0.0586-0.48401-0.088-1.012-0.088h-7.304c-0.528 2e-5 -0.86534 0.0294-1.012 0.088-0.14667 0.0294-0.352 0.14669-0.616 0.352-0.264 0.20535-0.42534 0.38135-0.484 0.528-0.0293 0.11735-0.044 0.39602-0.044 0.836v12.232c0 0.44001 0.0147 0.73334 0.044 0.88 0.0587 0.11734 0.22 0.27867 0.484 0.484 0.264 0.20534 0.46933 0.33734 0.616 0.396 0.14666 0.0293 0.484 0.044 1.012 0.044h7.304c0.52799 1e-5 0.86532-0.0147 1.012-0.044 0.14665-0.0587 0.35199-0.19066 0.616-0.396 0.26399-0.20533 0.41065-0.36666 0.44-0.484 0.0587-0.14666 0.088-0.43999 0.088-0.88"/>
   <g transform="translate(1.6)">
    <path d="m68.717 673.24c0.528-0.32264 0.88-0.51331 1.056-0.572 0.20533-0.0586 0.572-0.088 1.1-0.088l4.6158 7e-3v3.0696l-4.0878 3e-3c-0.52801 2e-5 -0.89467 0.0294-1.1 0.088-0.176 0.0587-0.528 0.24935-1.056 0.572-0.528 0.32269-0.836 0.55735-0.924 0.704-0.088 0.14669-0.132 0.44002-0.132 0.88v16.676h-3.696s-4e-3 -17.658-4e-3 -18.053c-1.1e-4 -0.39447 0.54248-0.85589 0.76714-1.0244s3.4609-2.2629 3.4609-2.2629z"/>
    <path d="m95.974 690.57c0 0.73728-0.4675 1.383-1.0689 1.8856s-0.77407 0.61952-1.2357 0.99031-1.4876 1.139-1.9161 1.139c-0.71151 0-9.6793-0.0408-9.6793-0.0408-0.704-3e-3 -1.408-0.29333-2.112-0.88l-1.056-0.88c-0.704-0.58666-1.056-1.32-1.056-2.2v-5.28c0-0.87999 0.352-1.6133 1.056-2.2l1.056-0.88c0.70399-0.58665 1.408-0.87998 2.112-0.88 3.0616-0.0275 5.9336-0.0275 8.8911-0.0275 0.44844-2e-5 0.92725 0.26121 1.3045 0.64258 0-1.2188 0.01237-3.6528 0.01237-4.5311-2e-5 -0.43998-0.0293-0.71865-0.088-0.836-0.0294-0.14665-0.17602-0.32265-0.44-0.528-0.26402-0.20531-0.46935-0.32265-0.616-0.352-0.14668-0.0586-0.50061-0.033-1.0286-0.033h-8.5829v-3.0696h10.227c0.70398 2e-5 1.4086 0.22767 2.1127 0.81431l1.056 0.88c0.70398 0.58669 1.056 1.32 1.056 2.2m-14.432 9.724v3.432c-1e-5 0.44001 0.0147 0.73334 0.044 0.88 0.0587 0.11734 0.21999 0.27867 0.484 0.484 0.26399 0.20534 0.46933 0.33734 0.616 0.396 0.14666 0.0293 0.48399 0.044 1.012 0.044h5.368c0.52798 1e-5 0.87998-0.0293 1.056-0.088 0.20532-0.0587 0.57198-0.24933 1.1-0.572 0.52798-0.32266 0.83598-0.55733 0.924-0.704 0.088-0.14666 0.13198-0.43999 0.132-0.88v-2.992c-2e-5 -0.43999-0.0293-0.71866-0.088-0.836-0.0294-0.14665-0.17602-0.32265-0.44-0.528-0.26402-0.20532-0.46935-0.32265-0.616-0.352-0.14668-0.0587-0.48402-0.088-1.012-0.088h-6.424c-0.52801 1e-5 -0.86534 0.0294-1.012 0.088-0.14667 0.0293-0.35201 0.14668-0.616 0.352-0.26401 0.20535-0.42534 0.38135-0.484 0.528-0.0293 0.11734-0.044 0.39601-0.044 0.836"/>
    <path d="m58.524 690.57c0 0.73728-0.4675 1.383-1.0689 1.8856s-0.77407 0.61952-1.2357 0.99031-1.4876 1.139-1.9161 1.139c-0.71151 0-9.6793-0.0408-9.6793-0.0408-0.704-3e-3 -1.408-0.29333-2.112-0.88l-1.056-0.88c-0.704-0.58666-1.056-1.32-1.056-2.2v-5.28c0-0.87999 0.352-1.6133 1.056-2.2l1.056-0.88c0.70399-0.58665 1.408-0.87998 2.112-0.88 3.0616-0.0275 5.9336-0.0275 8.8911-0.0275 0.44844-2e-5 0.92725 0.26121 1.3045 0.64258 0-1.2188 0.01237-3.6528 0.01237-4.5311-2e-5 -0.43998-0.0293-0.71865-0.088-0.836-0.0294-0.14665-0.17602-0.32265-0.44-0.528-0.26402-0.20531-0.46935-0.32265-0.616-0.352-0.14668-0.0586-0.50061-0.033-1.0286-0.033h-8.5829v-3.0696h10.227c0.70398 2e-5 1.4086 0.22767 2.1127 0.81431l1.056 0.88c0.70398 0.58669 1.056 1.32 1.056 2.2m-14.432 9.724v3.432c-1e-5 0.44001 0.0147 0.73334 0.044 0.88 0.0587 0.11734 0.21999 0.27867 0.484 0.484 0.26399 0.20534 0.46933 0.33734 0.616 0.396 0.14666 0.0293 0.48399 0.044 1.012 0.044h5.368c0.52798 1e-5 0.87998-0.0293 1.056-0.088 0.20532-0.0587 0.57198-0.24933 1.1-0.572 0.52798-0.32266 0.83598-0.55733 0.924-0.704 0.088-0.14666 0.13198-0.43999 0.132-0.88v-2.992c-2e-5 -0.43999-0.0293-0.71866-0.088-0.836-0.0294-0.14665-0.17602-0.32265-0.44-0.528-0.26402-0.20532-0.46935-0.32265-0.616-0.352-0.14668-0.0587-0.48402-0.088-1.012-0.088h-6.424c-0.52801 1e-5 -0.86534 0.0294-1.012 0.088-0.14667 0.0293-0.35201 0.14668-0.616 0.352-0.26401 0.20535-0.42534 0.38135-0.484 0.528-0.0293 0.11734-0.044 0.39601-0.044 0.836"/>
   </g>
  </g>
 </g>
</svg>
