<svg width="636pt" height="800pt" viewBox="0.00 0.00 635.93 800.00" xmlns="http://www.w3.org/2000/svg" xmlns:xlink="http://www.w3.org/1999/xlink">
<g id="graph0" class="graph" transform="scale(1 1) rotate(0) translate(4 796)">
<title>lol</title>
<polygon fill="#ffffff" stroke="transparent" points="-4,4 -4,-796 631.9343,-796 631.9343,4 -4,4"></polygon>
<!-- 0day@freddy -->
<g id="node1" class="node">
<title>0day@freddy</title>
<ellipse fill="#add8e6" stroke="#000000" cx="71.1143" cy="-18" rx="63.807" ry="18"></ellipse>
<text text-anchor="middle" x="71.1143" y="-13.8" font-family="Times,serif" font-size="14.00" fill="#000000">0day@freddy</text>
</g>
<!-- FPTU Ethical Hacker Club -->
<g id="node2" class="node">
<title>FPTU Ethical Hacker Club</title>
<ellipse fill="#add8e6" stroke="#000000" cx="294.1231" cy="-18" rx="115.7891" ry="18"></ellipse>
<text text-anchor="middle" x="294.1231" y="-13.8" font-family="Times,serif" font-size="14.00" fill="#000000">FPTU Ethical Hacker Club</text>
</g>
<!-- 0day@freddy&#45;&gt;FPTU Ethical Hacker Club -->
<g id="edge1" class="edge">
<title>0day@freddy-&gt;FPTU Ethical Hacker Club</title>
<path fill="none" stroke="#000000" d="M135.0197,-18C145.4722,-18 156.6117,-18 167.9573,-18"></path>
<polygon fill="#000000" stroke="#000000" points="167.9687,-21.5001 177.9686,-18 167.9686,-14.5001 167.9687,-21.5001"></polygon>
</g>
<!-- NOVA -->
<g id="node3" class="node">
<title>NOVA</title>
<ellipse fill="#add8e6" stroke="#000000" cx="71.1143" cy="-153" rx="38.844" ry="18"></ellipse>
<text text-anchor="middle" x="71.1143" y="-148.8" font-family="Times,serif" font-size="14.00" fill="#000000">NOVA</text>
</g>
<!-- MindCrafters -->
<g id="node4" class="node">
<title>MindCrafters</title>
<ellipse fill="#add8e6" stroke="#000000" cx="294.1231" cy="-180" rx="63.117" ry="18"></ellipse>
<text text-anchor="middle" x="294.1231" y="-175.8" font-family="Times,serif" font-size="14.00" fill="#000000">MindCrafters</text>
</g>
<!-- NOVA&#45;&gt;MindCrafters -->
<g id="edge2" class="edge">
<title>NOVA-&gt;MindCrafters</title>
<path fill="none" stroke="#000000" d="M110.2147,-152.4548C144.804,-154.9762 195.77,-160.8963 235.2825,-166.8455"></path>
<polygon fill="#000000" stroke="#000000" points="234.905,-170.3286 245.3223,-168.3976 235.9745,-163.4108 234.905,-170.3286"></polygon>
</g>
<!-- 0bug -->
<g id="node17" class="node">
<title>0bug</title>
<ellipse fill="#add8e6" stroke="#000000" cx="294.1231" cy="-126" rx="30.2015" ry="18"></ellipse>
<text text-anchor="middle" x="294.1231" y="-121.8" font-family="Times,serif" font-size="14.00" fill="#000000">0bug</text>
</g>
<!-- NOVA&#45;&gt;0bug -->
<g id="edge9" class="edge">
<title>NOVA-&gt;0bug</title>
<path fill="none" stroke="#000000" d="M108.9447,-148.4198C149.3843,-143.5237 213.2252,-135.7944 254.3836,-130.8113"></path>
<polygon fill="#000000" stroke="#000000" points="254.8241,-134.2836 264.3309,-129.607 253.9827,-127.3344 254.8241,-134.2836"></polygon>
</g>
<!-- 0xfun -->
<g id="node26" class="node">
<title>0xfun</title>
<ellipse fill="#add8e6" stroke="#000000" cx="294.1231" cy="-72" rx="33.6305" ry="18"></ellipse>
<text text-anchor="middle" x="294.1231" y="-67.8" font-family="Times,serif" font-size="14.00" fill="#000000">0xfun</text>
</g>
<!-- NOVA&#45;&gt;0xfun -->
<g id="edge18" class="edge">
<title>NOVA-&gt;0xfun</title>
<path fill="none" stroke="#000000" d="M95.4717,-138.61C116.7112,-126.5825 148.6659,-109.7215 178.2286,-99 202.1444,-90.3264 229.8678,-83.7499 252.2022,-79.2599"></path>
<polygon fill="#000000" stroke="#000000" points="252.9041,-82.689 262.0517,-77.3437 251.5673,-75.8179 252.9041,-82.689"></polygon>
</g>
<!-- MindCrafters&#45;&gt;NOVA -->
<g id="edge11" class="edge">
<title>MindCrafters-&gt;NOVA</title>
<path fill="none" stroke="#000000" d="M231.1538,-178.5223C194.1914,-175.0273 148.3884,-169.269 115.2658,-163.8531"></path>
<polygon fill="#000000" stroke="#000000" points="115.4289,-160.3309 104.9845,-162.1101 114.2588,-167.2324 115.4289,-160.3309"></polygon>
</g>
<!-- 4O4NULLERS -->
<g id="node5" class="node">
<title>4O4NULLERS</title>
<ellipse fill="#add8e6" stroke="#000000" cx="71.1143" cy="-261" rx="71.2288" ry="18"></ellipse>
<text text-anchor="middle" x="71.1143" y="-256.8" font-family="Times,serif" font-size="14.00" fill="#000000">4O4NULLERS</text>
</g>
<!-- ACSS Override -->
<g id="node6" class="node">
<title>ACSS Override</title>
<ellipse fill="#add8e6" stroke="#000000" cx="294.1231" cy="-288" rx="71.8279" ry="18"></ellipse>
<text text-anchor="middle" x="294.1231" y="-283.8" font-family="Times,serif" font-size="14.00" fill="#000000">ACSS Override</text>
</g>
<!-- 4O4NULLERS&#45;&gt;ACSS Override -->
<g id="edge3" class="edge">
<title>4O4NULLERS-&gt;ACSS Override</title>
<path fill="none" stroke="#000000" d="M135.3185,-268.7733C161.4469,-271.9367 191.8288,-275.6151 218.9806,-278.9024"></path>
<polygon fill="#000000" stroke="#000000" points="218.8648,-282.4138 229.213,-280.1412 219.7062,-275.4646 218.8648,-282.4138"></polygon>
</g>
<!-- ZeroLight -->
<g id="node15" class="node">
<title>ZeroLight</title>
<ellipse fill="#add8e6" stroke="#000000" cx="294.1231" cy="-234" rx="50.38" ry="18"></ellipse>
<text text-anchor="middle" x="294.1231" y="-229.8" font-family="Times,serif" font-size="14.00" fill="#000000">ZeroLight</text>
</g>
<!-- 4O4NULLERS&#45;&gt;ZeroLight -->
<g id="edge14" class="edge">
<title>4O4NULLERS-&gt;ZeroLight</title>
<path fill="none" stroke="#000000" d="M135.3185,-253.2267C167.1101,-249.3777 205.1988,-244.7662 236.1041,-241.0244"></path>
<polygon fill="#000000" stroke="#000000" points="236.7833,-244.4679 246.2901,-239.7912 235.9419,-237.5186 236.7833,-244.4679"></polygon>
</g>
<!-- Nc{Cat} -->
<g id="node7" class="node">
<title>Nc{Cat}</title>
<ellipse fill="#add8e6" stroke="#000000" cx="294.1231" cy="-342" rx="44.9478" ry="18"></ellipse>
<text text-anchor="middle" x="294.1231" y="-337.8" font-family="Times,serif" font-size="14.00" fill="#000000">Nc{Cat}</text>
</g>
<!-- Band 0xF Br3ach3rs -->
<g id="node8" class="node">
<title>Band 0xF Br3ach3rs</title>
<ellipse fill="#add8e6" stroke="#000000" cx="536.976" cy="-342" rx="90.9167" ry="18"></ellipse>
<text text-anchor="middle" x="536.976" y="-337.8" font-family="Times,serif" font-size="14.00" fill="#000000">Band 0xF Br3ach3rs</text>
</g>
<!-- Nc{Cat}&#45;&gt;Band 0xF Br3ach3rs -->
<g id="edge4" class="edge">
<title>Nc{Cat}-&gt;Band 0xF Br3ach3rs</title>
<path fill="none" stroke="#000000" d="M339.2327,-342C366.3324,-342 401.9608,-342 435.501,-342"></path>
<polygon fill="#000000" stroke="#000000" points="435.8313,-345.5001 445.8313,-342 435.8312,-338.5001 435.8313,-345.5001"></polygon>
</g>
<!-- xupa curintia -->
<g id="node9" class="node">
<title>xupa curintia</title>
<ellipse fill="#add8e6" stroke="#000000" cx="71.1143" cy="-396" rx="61.9389" ry="18"></ellipse>
<text text-anchor="middle" x="71.1143" y="-391.8" font-family="Times,serif" font-size="14.00" fill="#000000">xupa curintia</text>
</g>
<!-- Ganesh -->
<g id="node10" class="node">
<title>Ganesh</title>
<ellipse fill="#add8e6" stroke="#000000" cx="294.1231" cy="-396" rx="39.9876" ry="18"></ellipse>
<text text-anchor="middle" x="294.1231" y="-391.8" font-family="Times,serif" font-size="14.00" fill="#000000">Ganesh</text>
</g>
<!-- xupa curintia&#45;&gt;Ganesh -->
<g id="edge5" class="edge">
<title>xupa curintia-&gt;Ganesh</title>
<path fill="none" stroke="#000000" d="M132.9385,-396C167.8329,-396 210.8866,-396 243.7172,-396"></path>
<polygon fill="#000000" stroke="#000000" points="243.994,-399.5001 253.994,-396 243.994,-392.5001 243.994,-399.5001"></polygon>
</g>
<!-- RaptX -->
<g id="node11" class="node">
<title>RaptX</title>
<ellipse fill="#add8e6" stroke="#000000" cx="71.1143" cy="-504" rx="36.4955" ry="18"></ellipse>
<text text-anchor="middle" x="71.1143" y="-499.8" font-family="Times,serif" font-size="14.00" fill="#000000">RaptX</text>
</g>
<!-- PuuPuu -->
<g id="node12" class="node">
<title>PuuPuu</title>
<ellipse fill="#add8e6" stroke="#000000" cx="294.1231" cy="-558" rx="41.1742" ry="18"></ellipse>
<text text-anchor="middle" x="294.1231" y="-553.8" font-family="Times,serif" font-size="14.00" fill="#000000">PuuPuu</text>
</g>
<!-- RaptX&#45;&gt;PuuPuu -->
<g id="edge6" class="edge">
<title>RaptX-&gt;PuuPuu</title>
<path fill="none" stroke="#000000" d="M103.4193,-512.3044C124.6561,-517.7237 153.0676,-524.8985 178.2286,-531 201.004,-536.523 226.3511,-542.4528 247.5189,-547.3445"></path>
<polygon fill="#000000" stroke="#000000" points="247.0143,-550.8199 257.5451,-549.6561 248.5871,-543.9989 247.0143,-550.8199"></polygon>
</g>
<!-- momo -->
<g id="node22" class="node">
<title>momo</title>
<ellipse fill="#add8e6" stroke="#000000" cx="294.1231" cy="-504" rx="35.9368" ry="18"></ellipse>
<text text-anchor="middle" x="294.1231" y="-499.8" font-family="Times,serif" font-size="14.00" fill="#000000">momo</text>
</g>
<!-- RaptX&#45;&gt;momo -->
<g id="edge13" class="edge">
<title>RaptX-&gt;momo</title>
<path fill="none" stroke="#000000" d="M107.4408,-504C145.7847,-504 206.3291,-504 248.0149,-504"></path>
<polygon fill="#000000" stroke="#000000" points="248.1816,-507.5001 258.1816,-504 248.1816,-500.5001 248.1816,-507.5001"></polygon>
</g>
<!-- capablanca -->
<g id="node23" class="node">
<title>capablanca</title>
<ellipse fill="#add8e6" stroke="#000000" cx="294.1231" cy="-450" rx="53.8519" ry="18"></ellipse>
<text text-anchor="middle" x="294.1231" y="-445.8" font-family="Times,serif" font-size="14.00" fill="#000000">capablanca</text>
</g>
<!-- RaptX&#45;&gt;capablanca -->
<g id="edge15" class="edge">
<title>RaptX-&gt;capablanca</title>
<path fill="none" stroke="#000000" d="M103.4193,-495.6956C124.6561,-490.2763 153.0676,-483.1015 178.2286,-477 198.2323,-472.1491 220.22,-466.9844 239.6174,-462.4849"></path>
<polygon fill="#000000" stroke="#000000" points="240.5473,-465.8623 249.5007,-460.1978 238.969,-459.0425 240.5473,-465.8623"></polygon>
</g>
<!-- HoleInBottle -->
<g id="node13" class="node">
<title>HoleInBottle</title>
<ellipse fill="#add8e6" stroke="#000000" cx="71.1143" cy="-612" rx="61.4128" ry="18"></ellipse>
<text text-anchor="middle" x="71.1143" y="-607.8" font-family="Times,serif" font-size="14.00" fill="#000000">HoleInBottle</text>
</g>
<!-- ncodeks -->
<g id="node14" class="node">
<title>ncodeks</title>
<ellipse fill="#add8e6" stroke="#000000" cx="294.1231" cy="-612" rx="42.8596" ry="18"></ellipse>
<text text-anchor="middle" x="294.1231" y="-607.8" font-family="Times,serif" font-size="14.00" fill="#000000">ncodeks</text>
</g>
<!-- HoleInBottle&#45;&gt;ncodeks -->
<g id="edge7" class="edge">
<title>HoleInBottle-&gt;ncodeks</title>
<path fill="none" stroke="#000000" d="M129.1251,-605.9942C164.446,-604.9303 209.152,-605.0071 243.1171,-606.2247"></path>
<polygon fill="#000000" stroke="#000000" points="243.1566,-609.7291 253.2908,-606.6392 243.4416,-602.7349 243.1566,-609.7291"></polygon>
</g>
<!-- ncodeks&#45;&gt;HoleInBottle -->
<g id="edge16" class="edge">
<title>ncodeks-&gt;HoleInBottle</title>
<path fill="none" stroke="#000000" d="M253.2908,-617.3608C221.4916,-618.8269 176.6474,-619.1326 139.4093,-618.2777"></path>
<polygon fill="#000000" stroke="#000000" points="139.2141,-614.7714 129.1251,-618.0058 139.029,-621.769 139.2141,-614.7714"></polygon>
</g>
<!-- kBxAc -->
<g id="node16" class="node">
<title>kBxAc</title>
<ellipse fill="#add8e6" stroke="#000000" cx="536.976" cy="-234" rx="38.2838" ry="18"></ellipse>
<text text-anchor="middle" x="536.976" y="-229.8" font-family="Times,serif" font-size="14.00" fill="#000000">kBxAc</text>
</g>
<!-- ZeroLight&#45;&gt;kBxAc -->
<g id="edge8" class="edge">
<title>ZeroLight-&gt;kBxAc</title>
<path fill="none" stroke="#000000" d="M344.4424,-234C386.58,-234 446.3569,-234 488.0884,-234"></path>
<polygon fill="#000000" stroke="#000000" points="488.2876,-237.5001 498.2876,-234 488.2875,-230.5001 488.2876,-237.5001"></polygon>
</g>
<!-- Vuln3ra -->
<g id="node18" class="node">
<title>Vuln3ra</title>
<ellipse fill="#add8e6" stroke="#000000" cx="71.1143" cy="-666" rx="42.8577" ry="18"></ellipse>
<text text-anchor="middle" x="71.1143" y="-661.8" font-family="Times,serif" font-size="14.00" fill="#000000">Vuln3ra</text>
</g>
<!-- TroJeun -->
<g id="node19" class="node">
<title>TroJeun</title>
<ellipse fill="#add8e6" stroke="#000000" cx="294.1231" cy="-666" rx="42.8577" ry="18"></ellipse>
<text text-anchor="middle" x="294.1231" y="-661.8" font-family="Times,serif" font-size="14.00" fill="#000000">TroJeun</text>
</g>
<!-- Vuln3ra&#45;&gt;TroJeun -->
<g id="edge10" class="edge">
<title>Vuln3ra-&gt;TroJeun</title>
<path fill="none" stroke="#000000" d="M113.8488,-666C150.0715,-666 202.1796,-666 241.0662,-666"></path>
<polygon fill="#000000" stroke="#000000" points="241.1537,-669.5001 251.1536,-666 241.1536,-662.5001 241.1537,-669.5001"></polygon>
</g>
<!-- Ialone -->
<g id="node20" class="node">
<title>Ialone</title>
<ellipse fill="#add8e6" stroke="#000000" cx="71.1143" cy="-720" rx="35.3315" ry="18"></ellipse>
<text text-anchor="middle" x="71.1143" y="-715.8" font-family="Times,serif" font-size="14.00" fill="#000000">Ialone</text>
</g>
<!-- omtose phellack -->
<g id="node21" class="node">
<title>omtose phellack</title>
<ellipse fill="#add8e6" stroke="#000000" cx="294.1231" cy="-720" rx="74.1174" ry="18"></ellipse>
<text text-anchor="middle" x="294.1231" y="-715.8" font-family="Times,serif" font-size="14.00" fill="#000000">omtose phellack</text>
</g>
<!-- Ialone&#45;&gt;omtose phellack -->
<g id="edge12" class="edge">
<title>Ialone-&gt;omtose phellack</title>
<path fill="none" stroke="#000000" d="M106.4507,-720C134.0611,-720 173.6066,-720 209.2834,-720"></path>
<polygon fill="#000000" stroke="#000000" points="209.7203,-723.5001 219.7203,-720 209.7203,-716.5001 209.7203,-723.5001"></polygon>
</g>
<!-- BigBoys -->
<g id="node24" class="node">
<title>BigBoys</title>
<ellipse fill="#add8e6" stroke="#000000" cx="71.1143" cy="-774" rx="44.6838" ry="18"></ellipse>
<text text-anchor="middle" x="71.1143" y="-769.8" font-family="Times,serif" font-size="14.00" fill="#000000">BigBoys</text>
</g>
<!-- seagull -->
<g id="node25" class="node">
<title>seagull</title>
<ellipse fill="#add8e6" stroke="#000000" cx="294.1231" cy="-774" rx="38.2799" ry="18"></ellipse>
<text text-anchor="middle" x="294.1231" y="-769.8" font-family="Times,serif" font-size="14.00" fill="#000000">seagull</text>
</g>
<!-- BigBoys&#45;&gt;seagull -->
<g id="edge17" class="edge">
<title>BigBoys-&gt;seagull</title>
<path fill="none" stroke="#000000" d="M115.9752,-774C153.4113,-774 206.6778,-774 245.2029,-774"></path>
<polygon fill="#000000" stroke="#000000" points="245.6527,-777.5001 255.6526,-774 245.6526,-770.5001 245.6527,-777.5001"></polygon>
</g>
<!-- SNI -->
<g id="node27" class="node">
<title>SNI</title>
<ellipse fill="#add8e6" stroke="#000000" cx="71.1143" cy="-342" rx="27" ry="18"></ellipse>
<text text-anchor="middle" x="71.1143" y="-337.8" font-family="Times,serif" font-size="14.00" fill="#000000">SNI</text>
</g>
<!-- SNI&#45;&gt;Nc{Cat} -->
<g id="edge19" class="edge">
<title>SNI-&gt;Nc{Cat}</title>
<path fill="none" stroke="#000000" d="M98.4595,-342C133.2043,-342 194.0133,-342 238.6438,-342"></path>
<polygon fill="#000000" stroke="#000000" points="238.7588,-345.5001 248.7588,-342 238.7587,-338.5001 238.7588,-345.5001"></polygon>
</g>
</g>
</svg>
