<svg width="636pt" height="784pt" viewBox="0.00 0.00 635.98 784.00" xmlns="http://www.w3.org/2000/svg" xmlns:xlink="http://www.w3.org/1999/xlink">
<g id="graph0" class="graph" transform="scale(1 1) rotate(0) translate(4 780)">
<title>lol</title>
<polygon fill="white" stroke="none" points="-4,4 -4,-780 631.98,-780 631.98,4 -4,4"/>
<!-- 0day@freddy -->
<g id="node1" class="node">
<title>0day@freddy</title>
<ellipse fill="lightblue" stroke="black" cx="71.12" cy="-18" rx="63.9" ry="18"/>
<text text-anchor="middle" x="71.12" y="-13.8" font-family="Times,serif" font-size="14.00">0day@freddy</text>
</g>
<!-- FPTU Ethical Hacker Club -->
<g id="node2" class="node">
<title>FPTU Ethical Hacker Club</title>
<ellipse fill="lightblue" stroke="black" cx="294.15" cy="-18" rx="115.9" ry="18"/>
<text text-anchor="middle" x="294.15" y="-13.8" font-family="Times,serif" font-size="14.00">FPTU Ethical Hacker Club</text>
</g>
<!-- 0day@freddy&#45;&gt;FPTU Ethical Hacker Club -->
<g id="edge1" class="edge">
<title>0day@freddy-&gt;FPTU Ethical Hacker Club</title>
<path fill="none" stroke="black" d="M135.46,-18C145.4,-18 155.97,-18 166.74,-18"/>
<polygon fill="black" stroke="black" points="166.51,-21.5 176.51,-18 166.51,-14.5 166.51,-21.5"/>
</g>
<!-- NOVA -->
<g id="node3" class="node">
<title>NOVA</title>
<ellipse fill="lightblue" stroke="black" cx="71.12" cy="-141" rx="38.93" ry="18"/>
<text text-anchor="middle" x="71.12" y="-136.8" font-family="Times,serif" font-size="14.00">NOVA</text>
</g>
<!-- MindCrafters -->
<g id="node4" class="node">
<title>MindCrafters</title>
<ellipse fill="lightblue" stroke="black" cx="294.15" cy="-164" rx="63.07" ry="18"/>
<text text-anchor="middle" x="294.15" y="-159.8" font-family="Times,serif" font-size="14.00">MindCrafters</text>
</g>
<!-- NOVA&#45;&gt;MindCrafters -->
<g id="edge2" class="edge">
<title>NOVA-&gt;MindCrafters</title>
<path fill="none" stroke="black" d="M110.37,-139.73C143.88,-141.56 193.18,-146.41 232.14,-151.54"/>
<polygon fill="black" stroke="black" points="231.46,-154.98 241.84,-152.87 232.41,-148.05 231.46,-154.98"/>
</g>
<!-- 0bug -->
<g id="node17" class="node">
<title>0bug</title>
<ellipse fill="lightblue" stroke="black" cx="537.01" cy="-95" rx="30.35" ry="18"/>
<text text-anchor="middle" x="537.01" y="-90.8" font-family="Times,serif" font-size="14.00">0bug</text>
</g>
<!-- NOVA&#45;&gt;0bug -->
<g id="edge9" class="edge">
<title>NOVA-&gt;0bug</title>
<path fill="none" stroke="black" d="M109.69,-137.27C195.77,-128.74 406.67,-107.83 495.51,-99.02"/>
<polygon fill="black" stroke="black" points="495.61,-102.52 505.21,-98.05 494.92,-95.56 495.61,-102.52"/>
</g>
<!-- 0xfun -->
<g id="node20" class="node">
<title>0xfun</title>
<ellipse fill="lightblue" stroke="black" cx="294.15" cy="-72" rx="33.57" ry="18"/>
<text text-anchor="middle" x="294.15" y="-67.8" font-family="Times,serif" font-size="14.00">0xfun</text>
</g>
<!-- NOVA&#45;&gt;0xfun -->
<g id="edge19" class="edge">
<title>NOVA-&gt;0xfun</title>
<path fill="none" stroke="black" d="M102.14,-129.96C123.3,-122.32 152.37,-112.11 178.25,-104 202.65,-96.36 230.24,-88.64 252.27,-82.7"/>
<polygon fill="black" stroke="black" points="253.02,-86.13 261.77,-80.16 251.21,-79.36 253.02,-86.13"/>
</g>
<!-- MindCrafters&#45;&gt;NOVA -->
<g id="edge12" class="edge">
<title>MindCrafters-&gt;NOVA</title>
<path fill="none" stroke="black" d="M230.74,-163.65C194.42,-160.84 149.5,-155.97 116.74,-151.19"/>
<polygon fill="black" stroke="black" points="117.6,-147.78 107.19,-149.73 116.55,-154.7 117.6,-147.78"/>
</g>
<!-- 4O4NULLERS -->
<g id="node5" class="node">
<title>4O4NULLERS</title>
<ellipse fill="lightblue" stroke="black" cx="71.12" cy="-245" rx="71.12" ry="18"/>
<text text-anchor="middle" x="71.12" y="-240.8" font-family="Times,serif" font-size="14.00">4O4NULLERS</text>
</g>
<!-- ACSS Override -->
<g id="node6" class="node">
<title>ACSS Override</title>
<ellipse fill="lightblue" stroke="black" cx="294.15" cy="-272" rx="71.93" ry="18"/>
<text text-anchor="middle" x="294.15" y="-267.8" font-family="Times,serif" font-size="14.00">ACSS Override</text>
</g>
<!-- 4O4NULLERS&#45;&gt;ACSS Override -->
<g id="edge3" class="edge">
<title>4O4NULLERS-&gt;ACSS Override</title>
<path fill="none" stroke="black" d="M135.76,-252.77C161.31,-255.89 190.97,-259.52 217.61,-262.77"/>
<polygon fill="black" stroke="black" points="216.96,-266.22 227.31,-263.96 217.81,-259.27 216.96,-266.22"/>
</g>
<!-- ZeroLight -->
<g id="node15" class="node">
<title>ZeroLight</title>
<ellipse fill="lightblue" stroke="black" cx="294.15" cy="-218" rx="50.19" ry="18"/>
<text text-anchor="middle" x="294.15" y="-213.8" font-family="Times,serif" font-size="14.00">ZeroLight</text>
</g>
<!-- 4O4NULLERS&#45;&gt;ZeroLight -->
<g id="edge15" class="edge">
<title>4O4NULLERS-&gt;ZeroLight</title>
<path fill="none" stroke="black" d="M135.76,-237.23C166.97,-233.41 204.3,-228.85 234.77,-225.13"/>
<polygon fill="black" stroke="black" points="235.09,-228.62 244.59,-223.93 234.24,-221.67 235.09,-228.62"/>
</g>
<!-- Nc{Cat} -->
<g id="node7" class="node">
<title>Nc{Cat}</title>
<ellipse fill="lightblue" stroke="black" cx="294.15" cy="-326" rx="44.98" ry="18"/>
<text text-anchor="middle" x="294.15" y="-321.8" font-family="Times,serif" font-size="14.00">Nc{Cat}</text>
</g>
<!-- Band 0xF Br3ach3rs -->
<g id="node8" class="node">
<title>Band 0xF Br3ach3rs</title>
<ellipse fill="lightblue" stroke="black" cx="537.01" cy="-326" rx="90.97" ry="18"/>
<text text-anchor="middle" x="537.01" y="-321.8" font-family="Times,serif" font-size="14.00">Band 0xF Br3ach3rs</text>
</g>
<!-- Nc{Cat}&#45;&gt;Band 0xF Br3ach3rs -->
<g id="edge4" class="edge">
<title>Nc{Cat}-&gt;Band 0xF Br3ach3rs</title>
<path fill="none" stroke="black" d="M339.61,-326C366.35,-326 401.55,-326 434.75,-326"/>
<polygon fill="black" stroke="black" points="434.4,-329.5 444.4,-326 434.4,-322.5 434.4,-329.5"/>
</g>
<!-- xupa curintia -->
<g id="node9" class="node">
<title>xupa curintia</title>
<ellipse fill="lightblue" stroke="black" cx="71.12" cy="-380" rx="61.72" ry="18"/>
<text text-anchor="middle" x="71.12" y="-375.8" font-family="Times,serif" font-size="14.00">xupa curintia</text>
</g>
<!-- Ganesh -->
<g id="node10" class="node">
<title>Ganesh</title>
<ellipse fill="lightblue" stroke="black" cx="294.15" cy="-380" rx="40" ry="18"/>
<text text-anchor="middle" x="294.15" y="-375.8" font-family="Times,serif" font-size="14.00">Ganesh</text>
</g>
<!-- xupa curintia&#45;&gt;Ganesh -->
<g id="edge5" class="edge">
<title>xupa curintia-&gt;Ganesh</title>
<path fill="none" stroke="black" d="M133.1,-380C167.47,-380 209.9,-380 242.43,-380"/>
<polygon fill="black" stroke="black" points="242.42,-383.5 252.42,-380 242.42,-376.5 242.42,-383.5"/>
</g>
<!-- RaptX -->
<g id="node11" class="node">
<title>RaptX</title>
<ellipse fill="lightblue" stroke="black" cx="71.12" cy="-488" rx="36.25" ry="18"/>
<text text-anchor="middle" x="71.12" y="-483.8" font-family="Times,serif" font-size="14.00">RaptX</text>
</g>
<!-- PuuPuu -->
<g id="node12" class="node">
<title>PuuPuu</title>
<ellipse fill="lightblue" stroke="black" cx="294.15" cy="-542" rx="41.09" ry="18"/>
<text text-anchor="middle" x="294.15" y="-537.8" font-family="Times,serif" font-size="14.00">PuuPuu</text>
</g>
<!-- RaptX&#45;&gt;PuuPuu -->
<g id="edge6" class="edge">
<title>RaptX-&gt;PuuPuu</title>
<path fill="none" stroke="black" d="M103.66,-496.19C124.75,-501.62 153.13,-508.85 178.25,-515 200.5,-520.44 225.23,-526.28 246.03,-531.13"/>
<polygon fill="black" stroke="black" points="245.13,-534.52 255.66,-533.37 246.72,-527.7 245.13,-534.52"/>
</g>
<!-- momo -->
<g id="node23" class="node">
<title>momo</title>
<ellipse fill="lightblue" stroke="black" cx="294.15" cy="-488" rx="35.72" ry="18"/>
<text text-anchor="middle" x="294.15" y="-483.8" font-family="Times,serif" font-size="14.00">momo</text>
</g>
<!-- RaptX&#45;&gt;momo -->
<g id="edge14" class="edge">
<title>RaptX-&gt;momo</title>
<path fill="none" stroke="black" d="M107.63,-488C145.37,-488 205.18,-488 246.65,-488"/>
<polygon fill="black" stroke="black" points="246.58,-491.5 256.58,-488 246.58,-484.5 246.58,-491.5"/>
</g>
<!-- capablanca -->
<g id="node24" class="node">
<title>capablanca</title>
<ellipse fill="lightblue" stroke="black" cx="294.15" cy="-434" rx="53.92" ry="18"/>
<text text-anchor="middle" x="294.15" y="-429.8" font-family="Times,serif" font-size="14.00">capablanca</text>
</g>
<!-- RaptX&#45;&gt;capablanca -->
<g id="edge16" class="edge">
<title>RaptX-&gt;capablanca</title>
<path fill="none" stroke="black" d="M103.66,-479.81C124.75,-474.38 153.13,-467.15 178.25,-461 197.62,-456.26 218.88,-451.22 237.78,-446.79"/>
<polygon fill="black" stroke="black" points="238.49,-450.22 247.43,-444.54 236.9,-443.41 238.49,-450.22"/>
</g>
<!-- HoleInBottle -->
<g id="node13" class="node">
<title>HoleInBottle</title>
<ellipse fill="lightblue" stroke="black" cx="71.12" cy="-596" rx="61.46" ry="18"/>
<text text-anchor="middle" x="71.12" y="-591.8" font-family="Times,serif" font-size="14.00">HoleInBottle</text>
</g>
<!-- ncodeks -->
<g id="node14" class="node">
<title>ncodeks</title>
<ellipse fill="lightblue" stroke="black" cx="294.15" cy="-596" rx="42.68" ry="18"/>
<text text-anchor="middle" x="294.15" y="-591.8" font-family="Times,serif" font-size="14.00">ncodeks</text>
</g>
<!-- HoleInBottle&#45;&gt;ncodeks -->
<g id="edge7" class="edge">
<title>HoleInBottle-&gt;ncodeks</title>
<path fill="none" stroke="black" d="M129.62,-589.99C164.29,-588.94 208.08,-589.01 241.62,-590.19"/>
<polygon fill="black" stroke="black" points="241.37,-593.68 251.51,-590.59 241.66,-586.69 241.37,-593.68"/>
</g>
<!-- ncodeks&#45;&gt;HoleInBottle -->
<g id="edge17" class="edge">
<title>ncodeks-&gt;HoleInBottle</title>
<path fill="none" stroke="black" d="M253.02,-601.34C221.76,-602.81 177.64,-603.13 140.8,-602.3"/>
<polygon fill="black" stroke="black" points="141.22,-598.81 131.13,-602.05 141.04,-605.81 141.22,-598.81"/>
</g>
<!-- kBxAc -->
<g id="node16" class="node">
<title>kBxAc</title>
<ellipse fill="lightblue" stroke="black" cx="537.01" cy="-218" rx="38.39" ry="18"/>
<text text-anchor="middle" x="537.01" y="-213.8" font-family="Times,serif" font-size="14.00">kBxAc</text>
</g>
<!-- ZeroLight&#45;&gt;kBxAc -->
<g id="edge8" class="edge">
<title>ZeroLight-&gt;kBxAc</title>
<path fill="none" stroke="black" d="M344.76,-218C386.34,-218 445.38,-218 486.84,-218"/>
<polygon fill="black" stroke="black" points="486.79,-221.5 496.79,-218 486.79,-214.5 486.79,-221.5"/>
</g>
<!-- Vuln3ra -->
<g id="node18" class="node">
<title>Vuln3ra</title>
<ellipse fill="lightblue" stroke="black" cx="71.12" cy="-650" rx="42.68" ry="18"/>
<text text-anchor="middle" x="71.12" y="-645.8" font-family="Times,serif" font-size="14.00">Vuln3ra</text>
</g>
<!-- TroJeun -->
<g id="node19" class="node">
<title>TroJeun</title>
<ellipse fill="lightblue" stroke="black" cx="294.15" cy="-650" rx="42.68" ry="18"/>
<text text-anchor="middle" x="294.15" y="-645.8" font-family="Times,serif" font-size="14.00">TroJeun</text>
</g>
<!-- Vuln3ra&#45;&gt;TroJeun -->
<g id="edge10" class="edge">
<title>Vuln3ra-&gt;TroJeun</title>
<path fill="none" stroke="black" d="M114.22,-650C150.01,-650 201.6,-650 240.19,-650"/>
<polygon fill="black" stroke="black" points="239.7,-653.5 249.7,-650 239.7,-646.5 239.7,-653.5"/>
</g>
<!-- 0xfun&#45;&gt;0bug -->
<g id="edge11" class="edge">
<title>0xfun-&gt;0bug</title>
<path fill="none" stroke="black" d="M327.63,-75.1C371.08,-79.25 448.1,-86.6 495.35,-91.12"/>
<polygon fill="black" stroke="black" points="494.89,-94.59 505.17,-92.06 495.55,-87.62 494.89,-94.59"/>
</g>
<!-- Ialone -->
<g id="node21" class="node">
<title>Ialone</title>
<ellipse fill="lightblue" stroke="black" cx="71.12" cy="-704" rx="35.16" ry="18"/>
<text text-anchor="middle" x="71.12" y="-699.8" font-family="Times,serif" font-size="14.00">Ialone</text>
</g>
<!-- omtose phellack -->
<g id="node22" class="node">
<title>omtose phellack</title>
<ellipse fill="lightblue" stroke="black" cx="294.15" cy="-704" rx="74.06" ry="18"/>
<text text-anchor="middle" x="294.15" y="-699.8" font-family="Times,serif" font-size="14.00">omtose phellack</text>
</g>
<!-- Ialone&#45;&gt;omtose phellack -->
<g id="edge13" class="edge">
<title>Ialone-&gt;omtose phellack</title>
<path fill="none" stroke="black" d="M106.66,-704C133.94,-704 173.19,-704 208.65,-704"/>
<polygon fill="black" stroke="black" points="208.5,-707.5 218.5,-704 208.5,-700.5 208.5,-707.5"/>
</g>
<!-- BigBoys -->
<g id="node25" class="node">
<title>BigBoys</title>
<ellipse fill="lightblue" stroke="black" cx="71.12" cy="-758" rx="44.85" ry="18"/>
<text text-anchor="middle" x="71.12" y="-753.8" font-family="Times,serif" font-size="14.00">BigBoys</text>
</g>
<!-- seagull -->
<g id="node26" class="node">
<title>seagull</title>
<ellipse fill="lightblue" stroke="black" cx="294.15" cy="-758" rx="38.39" ry="18"/>
<text text-anchor="middle" x="294.15" y="-753.8" font-family="Times,serif" font-size="14.00">seagull</text>
</g>
<!-- BigBoys&#45;&gt;seagull -->
<g id="edge18" class="edge">
<title>BigBoys-&gt;seagull</title>
<path fill="none" stroke="black" d="M116.32,-758C153.2,-758 205.7,-758 243.92,-758"/>
<polygon fill="black" stroke="black" points="243.77,-761.5 253.77,-758 243.77,-754.5 243.77,-761.5"/>
</g>
<!-- SNI -->
<g id="node27" class="node">
<title>SNI</title>
<ellipse fill="lightblue" stroke="black" cx="71.12" cy="-326" rx="27" ry="18"/>
<text text-anchor="middle" x="71.12" y="-321.8" font-family="Times,serif" font-size="14.00">SNI</text>
</g>
<!-- SNI&#45;&gt;Nc{Cat} -->
<g id="edge20" class="edge">
<title>SNI-&gt;Nc{Cat}</title>
<path fill="none" stroke="black" d="M98.35,-326C132.53,-326 193.22,-326 237.8,-326"/>
<polygon fill="black" stroke="black" points="237.53,-329.5 247.53,-326 237.53,-322.5 237.53,-329.5"/>
</g>
</g>
</svg>