<?xml version="1.0" encoding="UTF-8" standalone="no"?>
<!-- Created with Inkscape (http://www.inkscape.org/) -->

<svg
   width="64mm"
   height="64mm"
   viewBox="0 0 64.000001 64"
   version="1.1"
   id="svg5"
   xml:space="preserve"
   sodipodi:docname="KITCTF_logo_square.svg"
   inkscape:version="1.2.2 (732a01da63, 2022-12-09, custom)"
   inkscape:export-filename="../cf420747/KITCTF_favicon.png"
   inkscape:export-xdpi="12.7"
   inkscape:export-ydpi="12.7"
   xmlns:inkscape="http://www.inkscape.org/namespaces/inkscape"
   xmlns:sodipodi="http://sodipodi.sourceforge.net/DTD/sodipodi-0.dtd"
   xmlns="http://www.w3.org/2000/svg"
   xmlns:svg="http://www.w3.org/2000/svg"><sodipodi:namedview
     id="namedview7"
     pagecolor="#505050"
     bordercolor="#eeeeee"
     borderopacity="1"
     inkscape:showpageshadow="0"
     inkscape:pageopacity="0"
     inkscape:pagecheckerboard="0"
     inkscape:deskcolor="#505050"
     inkscape:document-units="mm"
     showgrid="false"
     inkscape:zoom="1.9855336"
     inkscape:cx="140.01274"
     inkscape:cy="140.26456"
     inkscape:window-width="1452"
     inkscape:window-height="752"
     inkscape:window-x="50"
     inkscape:window-y="114"
     inkscape:window-maximized="0"
     inkscape:current-layer="layer1" /><defs
     id="defs2" /><g
     inkscape:label="Layer 1"
     inkscape:groupmode="layer"
     id="layer1"
     transform="translate(6.8464532,-35.275028)"><rect
       style="display:none;fill:#ffffff;fill-opacity:1;stroke:none;stroke-width:0.433002;stop-color:#000000"
       id="rect1715"
       width="64"
       height="64"
       x="-6.8464532"
       y="35.275028"
       inkscape:label="Background" /><g
       id="g1661"
       inkscape:label="Logo"
       transform="matrix(0.37795234,0,0,0.37795234,-13.73081,25.031355)"><path
         style="display:inline;fill:#fefefe;stroke-width:0.0846667"
         d="m 176.58731,51.802701 c -0.0233,-0.02327 -0.43578,0.336701 -0.91674,0.799952 -2.79628,2.693289 -6.86548,6.054774 -10.38955,8.582421 -6.4559,4.630546 -14.26164,8.881003 -19.80809,10.786422 -5.15675,1.77155 -11.2629,2.359871 -16.25999,1.56683 -2.11437,-0.335553 -3.68483,-0.776464 -6.43475,-1.807642 -2.89534,-1.085728 -4.80618,-1.569088 -6.93601,-1.753898 l -1.13636,-0.0987 -1.19218,0.101286 c -3.00073,0.255306 -6.41603,0.888781 -9.36894,1.737361 -1.99866,0.574371 -7.860556,2.474537 -7.978836,2.586406 -0.03807,0.03601 2.450544,7.985749 5.529896,17.666105 6.821,21.442546 6.76961,21.283966 6.82801,21.283966 0.0259,0 0.52919,-0.26188 1.11827,-0.58187 4.07398,-2.21308 7.38087,-3.3196 11.27373,-3.77187 3.58036,-0.41591 5.51798,-0.26594 13.63121,1.05265 6.44748,1.04787 7.59665,1.18239 10.12962,1.18339 4.0501,0.002 6.06247,-0.51133 11.90935,-3.04064 8.28553,-3.58424 16.43306,-8.957842 24.10447,-15.897216 1.65115,-1.493576 2.00658,-1.879252 2.07688,-2.254126 l 0.0553,-0.295073 -0.3545,-1.003556 c -1.1473,-3.247488 -1.49863,-4.293526 -1.91565,-5.702494 -1.79615,-6.068709 -2.85658,-12.238661 -3.33158,-19.388481 -0.048,-0.721779 -0.18059,-3.350712 -0.29507,-5.842021 -0.23306,-5.071949 -0.27768,-5.8484 -0.33848,-5.9092 z"
         id="path1616"
         inkscape:label="Flag_Background" /><path
         id="path324"
         style="display:inline;fill:#bd1421;stroke-width:0.0846667"
         inkscape:label="Red"
         d="m 179.99072,42.299922 -0.13022,0.10697 c -0.0717,0.05886 -1.19909,1.288053 -2.50528,2.731617 -1.30619,1.443563 -2.96905,3.215446 -3.69538,3.937227 -5.72629,5.690482 -12.73902,10.91624 -19.93573,14.855941 -1.9298,1.056429 -6.09087,3.108062 -7.35924,3.628719 -3.04236,1.248867 -5.54233,1.881901 -8.98188,2.27428 -1.20598,0.137542 -5.16921,0.137927 -6.22288,5.16e-4 -2.53204,-0.330206 -3.91446,-0.661113 -6.77323,-1.621606 -4.87515,-1.637965 -7.46356,-2.162574 -10.62571,-2.153874 -4.53437,0.01242 -7.62713,0.832943 -21.505145,5.705078 -5.669329,1.990323 -6.534498,2.336921 -10.498584,4.209563 -2.685544,1.268652 -8.229803,4.167923 -8.35918,4.371309 -0.245115,0.385327 -0.04527,0.775593 4.379578,8.565885 4.375694,7.703772 6.075585,10.741079 9.525,17.017563 1.689071,3.0734 5.689095,10.27443 8.888346,16.00213 3.199243,5.72768 7.505235,13.44317 9.568925,17.1452 2.0637,3.70205 5.37125,9.60746 7.35046,13.12323 5.65218,10.04029 8.24617,14.67723 12.37237,22.11907 l 3.83749,6.92102 h 0.36535 0.36587 l -0.11059,-0.35967 c -0.0607,-0.19791 -4.61699,-14.52143 -10.12548,-31.83009 l -10.01541,-31.47044 0.10542,-0.25476 0.10542,-0.25528 0.90176,-0.58395 c 2.54167,-1.64697 5.15275,-2.7853 7.71684,-3.36361 3.85785,-0.87011 7.75359,-0.60563 18.62677,1.264 0.67522,0.1161 1.77993,0.27884 2.45515,0.36174 l 1.22783,0.15089 2.70939,0.003 c 2.85031,0.003 3.64871,-0.0561 5.78621,-0.42478 3.73828,-0.64471 6.37574,-1.59663 11.60808,-4.19044 5.49472,-2.72386 9.7605,-5.34756 14.90607,-9.16792 3.75608,-2.78873 6.44071,-5.076645 9.55394,-8.141618 1.73837,-1.711441 2.04535,-2.06822 2.04535,-2.379699 0,-0.07862 -0.27066,-0.737547 -0.601,-1.464511 -2.7674,-6.089918 -4.62869,-13.441282 -5.44824,-21.514965 -0.25586,-2.520643 -0.48681,-6.565909 -0.89297,-15.663127 -0.22731,-5.091096 -0.40593,-8.022538 -0.56379,-9.251115 z m -3.40341,9.502779 c 0.0608,0.0608 0.10542,0.837241 0.33848,5.9092 0.11448,2.491313 0.24707,5.12024 0.29507,5.842021 0.475,7.149834 1.53541,13.31976 3.33158,19.388481 0.41702,1.408972 0.76835,2.455 1.91565,5.702494 l 0.3545,1.003556 -0.0553,0.295073 c -0.0703,0.374876 -0.42573,0.760548 -2.07688,2.254126 -7.67143,6.939388 -15.81892,12.312958 -24.10447,15.897218 -5.84688,2.52931 -7.85923,3.04264 -11.90935,3.04064 -2.53297,-10e-4 -3.68214,-0.13552 -10.12962,-1.18339 -8.11325,-1.31859 -10.05085,-1.46858 -13.63121,-1.05265 -3.89288,0.45227 -7.19975,1.55879 -11.27373,3.77187 -0.58908,0.31999 -1.09237,0.58187 -1.11827,0.58187 -0.0584,0 -0.007,0.15862 -6.82801,-21.283968 -3.079356,-9.680376 -5.567966,-17.630095 -5.529896,-17.666105 0.11828,-0.111869 5.980156,-2.012035 7.978836,-2.586406 2.95291,-0.848582 6.36819,-1.482053 9.36894,-1.737361 l 1.19218,-0.101286 1.13636,0.0987 c 2.12983,0.18481 4.04065,0.668168 6.93601,1.753898 2.74992,1.03118 4.32038,1.472089 6.43475,1.807642 4.99709,0.793043 11.10322,0.204724 16.25999,-1.56683 5.54645,-1.905423 13.35217,-6.155868 19.80809,-10.786422 3.52407,-2.527653 7.59327,-5.889126 10.38955,-8.582421 0.48096,-0.463251 0.89344,-0.823222 0.91674,-0.799952 z" /><path
         style="display:inline;fill:#000000;stroke-width:0.0846667"
         d="m 31.645839,180.9652 c -0.06579,-0.10478 -0.796134,-1.42875 -1.622995,-2.94217 -1.838781,-3.36555 -7.736423,-13.99905 -10.084814,-18.18301 -0.947733,-1.68851 -1.72315,-3.11269 -1.72315,-3.16485 0,-0.12162 4.596481,-8.11157 4.667949,-8.11418 0.02949,-0.001 1.588036,2.82697 3.463437,6.28454 1.8754,3.45758 5.881043,10.73337 8.901427,16.16843 3.020385,5.43507 5.51404,9.94039 5.541457,10.01183 l 0.04985,0.12991 h -4.536773 -4.536773 z m 22.778989,-0.66052 c -1.923953,-1.40395 -16.329884,-11.51263 -19.107281,-13.40762 -1.420284,-0.96904 -2.644579,-1.82441 -2.720656,-1.9008 l -0.138323,-0.1389 -0.309728,-6.096 c -0.369891,-7.28011 -1.073833,-18.28876 -1.361317,-21.28905 -0.113537,-1.18491 -0.198003,-2.1617 -0.187704,-2.17065 0.0103,-0.009 0.971228,-0.55739 2.135394,-1.21875 1.164167,-0.66137 2.94825,-1.71685 3.964628,-2.3455 1.016379,-0.62865 1.860975,-1.13 1.876881,-1.11409 0.01591,0.0159 0.224143,5.85817 0.46275,12.98281 0.442072,13.19995 0.599721,16.78569 0.742143,16.88014 0.04403,0.0292 0.82026,0.57374 1.724956,1.21008 1.977794,1.39114 8.21314,5.48641 18.448976,12.11696 4.167716,2.69976 7.586629,4.91593 7.597584,4.92482 0.01095,0.009 -0.931271,0.55649 -2.093836,1.21688 l -2.113754,1.20069 H 59.46829 55.591039 Z m 23.11135,0.32185 c -10.048859,-18.1906 -27.589025,-49.12147 -35.120483,-61.93255 -0.690881,-1.1752 -1.256148,-2.17666 -1.256148,-2.22547 0,-0.0488 1.243749,-2.24272 2.763886,-4.87537 l 2.763886,-4.78662 0.100499,0.11175 c 0.05527,0.0615 0.589492,1.00711 1.18715,2.10143 8.215668,15.04293 23.017707,41.07266 38.073313,66.95279 1.57883,2.71395 2.892069,4.99042 2.918325,5.05883 l 0.04773,0.12438 H 83.421413 77.828502 Z M 104.14677,172.7102 C 97.710022,161.2137 83.161774,135.72592 72.335436,116.97836 67.373984,108.38681 63.266539,101.30444 63.20778,101.23975 l -0.106837,-0.11761 -0.704865,0.41165 c -1.389668,0.81158 -3.698349,2.37229 -6.154244,4.16038 -1.373901,1.00032 -2.542968,1.83601 -2.597926,1.8571 -0.05741,0.022 -0.308891,-0.33286 -0.591062,-0.83411 -0.270125,-0.47986 -1.059371,-1.85907 -1.753881,-3.06491 -0.694509,-1.20585 -1.245854,-2.2536 -1.225209,-2.32833 0.02064,-0.0747 1.356622,-2.419232 2.968839,-5.209983 l 2.931304,-5.074092 0.784324,-0.504533 c 0.431378,-0.277494 1.166131,-0.740863 1.632784,-1.029709 1.273943,-0.788537 11.559275,-6.672061 11.597316,-6.634019 0.08427,0.08427 5.969224,10.761466 5.969224,10.830091 0,0.04291 -0.03909,0.07802 -0.08688,0.07802 -0.21797,0 -5.226587,2.781087 -5.572979,3.094456 l -0.114188,0.103302 3.743798,6.634957 c 4.362371,7.73122 31.847152,55.60505 36.133412,62.93829 1.60588,2.74743 4.17176,7.11868 5.70196,9.71389 1.53022,2.5952 2.78221,4.73833 2.78221,4.7625 0,0.0242 -2.18632,0.0439 -4.85849,0.0439 H 108.8279 Z M 116.888,101.82514 c -2.09997,-0.29901 -4.17275,-1.16691 -5.557,-2.326811 -1.83494,-1.53754 -3.0648,-4.467275 -3.2568,-7.758243 -0.15921,-2.72898 0.80855,-5.330885 2.66066,-7.153407 1.34956,-1.327999 3.55967,-2.427237 5.89251,-2.930745 l 0.85918,-0.185441 1.60866,-2.54e-4 1.60867,-2.54e-4 1.10067,0.232682 c 1.13968,0.24093 1.39568,0.348078 1.59927,0.669353 0.12123,0.191302 0.60927,3.258328 0.53096,3.336649 -0.0233,0.02327 -0.66449,-0.07644 -1.42494,-0.221579 -1.78656,-0.34098 -2.82784,-0.449601 -3.66863,-0.382688 -3.53789,0.281562 -5.54566,2.374887 -5.54566,5.781945 0,2.25699 0.77104,4.420785 2.03039,5.69793 l 0.63661,0.645603 0.61353,0.30781 c 0.78603,0.394353 1.48708,0.557165 2.40585,0.558733 1.75315,0.003 3.54506,-0.625348 5.47178,-1.918697 0.5257,-0.352891 0.96836,-0.627241 0.98366,-0.609669 0.0338,0.03884 0.55818,3.388725 0.55818,3.566076 0,0.254984 -0.49469,0.605264 -1.69278,1.198617 -2.13128,1.05551 -3.67867,1.47289 -5.67322,1.53024 -0.67522,0.0194 -1.45892,0.002 -1.74155,-0.0379 z m 27.15216,-1.24387 c -0.0464,-0.17852 -0.87067,-3.563074 -1.83168,-7.521241 -0.96101,-3.958166 -1.76431,-7.257625 -1.78512,-7.33213 l -0.0378,-0.135463 -1.56467,0.368296 c -0.86056,0.202564 -2.26576,0.533328 -3.12268,0.735032 l -1.55802,0.366734 -0.46328,-1.827234 c -0.25482,-1.004979 -0.45857,-1.832925 -0.45282,-1.83988 0.0212,-0.02556 17.45245,-4.242876 17.47104,-4.226938 0.0374,0.03205 0.8718,3.630774 0.84749,3.655085 -0.0136,0.01357 -1.33422,0.349882 -2.93479,0.74736 -2.77888,0.690096 -3.2236,0.843639 -3.2236,1.112983 0,0.05863 0.68211,2.88165 1.5158,6.273377 0.83369,3.391728 1.63646,6.700178 1.78393,7.352112 0.14749,0.651933 0.28199,1.229455 0.2989,1.283381 0.0201,0.06403 -0.78238,0.295634 -2.31311,0.667596 -1.28911,0.31324 -2.38915,0.58663 -2.44452,0.60752 -0.0595,0.0225 -0.13515,-0.0946 -0.18505,-0.28659 z m 17.38839,-17.697128 c -2.28177,-4.8247 -4.15912,-8.797891 -4.17189,-8.829313 -0.0219,-0.05381 11.96416,-5.770997 12.22139,-5.829449 0.13863,-0.0315 1.77564,3.280584 1.66756,3.373896 -0.0358,0.0309 -1.77004,0.867699 -3.8539,1.859563 -2.08385,0.991863 -3.78883,1.832032 -3.78883,1.867043 0,0.03501 0.35243,0.787783 0.78317,1.672829 l 0.78316,1.609174 3.556,-1.682243 c 1.9558,-0.925235 3.5941,-1.681668 3.64067,-1.680963 0.1358,0.0021 1.69569,3.284338 1.60395,3.374995 -0.044,0.04346 -1.6611,0.829957 -3.59362,1.747778 -1.93251,0.917819 -3.52946,1.682068 -3.54877,1.698331 -0.0286,0.0241 0.71059,1.617897 3.43364,7.403276 0.0228,0.04832 -4.42056,2.197312 -4.52938,2.190618 -0.03,-0.0018 -1.92139,-3.950834 -4.20315,-8.775535 z"
         id="path322"
         inkscape:label="Black" /></g></g></svg>
