<?xml version="1.0" encoding="UTF-8"?>
<svg width="64mm" height="64mm" version="1.1" viewBox="0 0 64 64" xml:space="preserve" xmlns="http://www.w3.org/2000/svg"><g transform="translate(6.8465 -35.275)"><rect x="-6.8465" y="35.275" width="64" height="64" display="none" fill="#fff" stop-color="#000000"/><g transform="matrix(.37795 0 0 .37795 -13.731 25.031)" stroke-width=".084667"><path d="m176.59 51.803c-0.0233-0.02327-0.43578 0.3367-0.91674 0.79995-2.7963 2.6933-6.8655 6.0548-10.39 8.5824-6.4559 4.6305-14.262 8.881-19.808 10.786-5.1568 1.7716-11.263 2.3599-16.26 1.5668-2.1144-0.33555-3.6848-0.77646-6.4348-1.8076-2.8953-1.0857-4.8062-1.5691-6.936-1.7539l-1.1364-0.0987-1.1922 0.10129c-3.0007 0.25531-6.416 0.88878-9.3689 1.7374-1.9987 0.57437-7.8606 2.4745-7.9788 2.5864-0.03807 0.03601 2.4505 7.9857 5.5299 17.666 6.821 21.443 6.7696 21.284 6.828 21.284 0.0259 0 0.52919-0.26188 1.1183-0.58187 4.074-2.2131 7.3809-3.3196 11.274-3.7719 3.5804-0.41591 5.518-0.26594 13.631 1.0526 6.4475 1.0479 7.5966 1.1824 10.13 1.1834 4.0501 2e-3 6.0625-0.51133 11.909-3.0406 8.2855-3.5842 16.433-8.9578 24.104-15.897 1.6512-1.4936 2.0066-1.8793 2.0769-2.2541l0.0553-0.29507-0.3545-1.0036c-1.1473-3.2475-1.4986-4.2935-1.9156-5.7025-1.7962-6.0687-2.8566-12.239-3.3316-19.388-0.048-0.72178-0.18059-3.3507-0.29507-5.842-0.23306-5.0719-0.27768-5.8484-0.33848-5.9092z" fill="#fefefe"/><path d="m179.99 42.3-0.13022 0.10697c-0.0717 0.05886-1.1991 1.2881-2.5053 2.7316-1.3062 1.4436-2.969 3.2154-3.6954 3.9372-5.7263 5.6905-12.739 10.916-19.936 14.856-1.9298 1.0564-6.0909 3.1081-7.3592 3.6287-3.0424 1.2489-5.5423 1.8819-8.9819 2.2743-1.206 0.13754-5.1692 0.13793-6.2229 5.16e-4 -2.532-0.33021-3.9145-0.66111-6.7732-1.6216-4.8752-1.638-7.4636-2.1626-10.626-2.1539-4.5344 0.01242-7.6271 0.83294-21.505 5.7051-5.6693 1.9903-6.5345 2.3369-10.499 4.2096-2.6855 1.2687-8.2298 4.1679-8.3592 4.3713-0.24512 0.38533-0.04527 0.77559 4.3796 8.5659 4.3757 7.7038 6.0756 10.741 9.525 17.018 1.6891 3.0734 5.6891 10.274 8.8883 16.002 3.1992 5.7277 7.5052 13.443 9.5689 17.145 2.0637 3.702 5.3712 9.6075 7.3505 13.123 5.6522 10.04 8.2462 14.677 12.372 22.119l3.8375 6.921h0.73122l-0.11059-0.35967c-0.0607-0.19791-4.617-14.521-10.125-31.83l-10.015-31.47 0.10542-0.25476 0.10542-0.25528 0.90176-0.58395c2.5417-1.647 5.1528-2.7853 7.7168-3.3636 3.8578-0.87011 7.7536-0.60563 18.627 1.264 0.67522 0.1161 1.7799 0.27884 2.4552 0.36174l1.2278 0.15089 2.7094 3e-3c2.8503 3e-3 3.6487-0.0561 5.7862-0.42478 3.7383-0.64471 6.3757-1.5966 11.608-4.1904 5.4947-2.7239 9.7605-5.3476 14.906-9.1679 3.7561-2.7887 6.4407-5.0766 9.5539-8.1416 1.7384-1.7114 2.0454-2.0682 2.0454-2.3797 0-0.07862-0.27066-0.73755-0.601-1.4645-2.7674-6.0899-4.6287-13.441-5.4482-21.515-0.25586-2.5206-0.48681-6.5659-0.89297-15.663-0.22731-5.0911-0.40593-8.0225-0.56379-9.2511zm-3.4034 9.5028c0.0608 0.0608 0.10542 0.83724 0.33848 5.9092 0.11448 2.4913 0.24707 5.1202 0.29507 5.842 0.475 7.1498 1.5354 13.32 3.3316 19.388 0.41702 1.409 0.76835 2.455 1.9156 5.7025l0.3545 1.0036-0.0553 0.29507c-0.0703 0.37488-0.42573 0.76055-2.0769 2.2541-7.6714 6.9394-15.819 12.313-24.104 15.897-5.8469 2.5293-7.8592 3.0426-11.909 3.0406-2.533-1e-3 -3.6821-0.13552-10.13-1.1834-8.1132-1.3186-10.051-1.4686-13.631-1.0526-3.8929 0.45227-7.1998 1.5588-11.274 3.7719-0.58908 0.31999-1.0924 0.58187-1.1183 0.58187-0.0584 0-7e-3 0.15862-6.828-21.284-3.0794-9.6804-5.568-17.63-5.5299-17.666 0.11828-0.11187 5.9802-2.012 7.9788-2.5864 2.9529-0.84858 6.3682-1.4821 9.3689-1.7374l1.1922-0.10129 1.1364 0.0987c2.1298 0.18481 4.0406 0.66817 6.936 1.7539 2.7499 1.0312 4.3204 1.4721 6.4348 1.8076 4.9971 0.79304 11.103 0.20472 16.26-1.5668 5.5464-1.9054 13.352-6.1559 19.808-10.786 3.5241-2.5277 7.5933-5.8891 10.39-8.5824 0.48096-0.46325 0.89344-0.82322 0.91674-0.79995z" fill="#bd1421"/><path d="m31.646 180.97c-0.06579-0.10478-0.79613-1.4288-1.623-2.9422-1.8388-3.3656-7.7364-13.999-10.085-18.183-0.94773-1.6885-1.7232-3.1127-1.7232-3.1648 0-0.12162 4.5965-8.1116 4.6679-8.1142 0.02949-1e-3 1.588 2.827 3.4634 6.2845 1.8754 3.4576 5.881 10.733 8.9014 16.168 3.0204 5.4351 5.514 9.9404 5.5415 10.012l0.04985 0.12991h-9.0735zm22.779-0.66052c-1.924-1.404-16.33-11.513-19.107-13.408-1.4203-0.96904-2.6446-1.8244-2.7207-1.9008l-0.13832-0.1389-0.30973-6.096c-0.36989-7.2801-1.0738-18.289-1.3613-21.289-0.11354-1.1849-0.198-2.1617-0.1877-2.1706 0.0103-9e-3 0.97123-0.55739 2.1354-1.2188 1.1642-0.66137 2.9482-1.7168 3.9646-2.3455 1.0164-0.62865 1.861-1.13 1.8769-1.1141 0.01591 0.0159 0.22414 5.8582 0.46275 12.983 0.44207 13.2 0.59972 16.786 0.74214 16.88 0.04403 0.0292 0.82026 0.57374 1.725 1.2101 1.9778 1.3911 8.2131 5.4864 18.449 12.117 4.1677 2.6998 7.5866 4.9159 7.5976 4.9248 0.01095 9e-3 -0.93127 0.55649-2.0938 1.2169l-2.1138 1.2007h-7.7545zm23.111 0.32185c-10.049-18.191-27.589-49.121-35.12-61.933-0.69088-1.1752-1.2561-2.1767-1.2561-2.2255 0-0.0488 1.2437-2.2427 2.7639-4.8754l2.7639-4.7866 0.1005 0.11175c0.05527 0.0615 0.58949 1.0071 1.1872 2.1014 8.2157 15.043 23.018 41.073 38.073 66.953 1.5788 2.714 2.8921 4.9904 2.9183 5.0588l0.04773 0.12438h-11.186zm26.611-7.9163c-6.4367-11.496-20.985-36.984-31.811-55.732-4.9615-8.5916-9.0689-15.674-9.1277-15.739l-0.10684-0.11761-0.70486 0.41165c-1.3897 0.81158-3.6983 2.3723-6.1542 4.1604-1.3739 1.0003-2.543 1.836-2.5979 1.8571-0.05741 0.022-0.30889-0.33286-0.59106-0.83411-0.27012-0.47986-1.0594-1.8591-1.7539-3.0649-0.69451-1.2058-1.2459-2.2536-1.2252-2.3283 0.02064-0.0747 1.3566-2.4192 2.9688-5.21l2.9313-5.0741 0.78432-0.50453c0.43138-0.27749 1.1661-0.74086 1.6328-1.0297 1.2739-0.78854 11.559-6.6721 11.597-6.634 0.08427 0.08427 5.9692 10.761 5.9692 10.83 0 0.04291-0.03909 0.07802-0.08688 0.07802-0.21797 0-5.2266 2.7811-5.573 3.0945l-0.11419 0.1033 3.7438 6.635c4.3624 7.7312 31.847 55.605 36.133 62.938 1.6059 2.7474 4.1718 7.1187 5.702 9.7139 1.5302 2.5952 2.7822 4.7383 2.7822 4.7625 0 0.0242-2.1863 0.0439-4.8585 0.0439h-4.8585zm12.741-70.885c-2.1-0.29901-4.1728-1.1669-5.557-2.3268-1.8349-1.5375-3.0648-4.4673-3.2568-7.7582-0.15921-2.729 0.80855-5.3309 2.6607-7.1534 1.3496-1.328 3.5597-2.4272 5.8925-2.9307l0.85918-0.18544 3.2173-5.08e-4 1.1007 0.23268c1.1397 0.24093 1.3957 0.34808 1.5993 0.66935 0.12123 0.1913 0.60927 3.2583 0.53096 3.3366-0.0233 0.02327-0.66449-0.07644-1.4249-0.22158-1.7866-0.34098-2.8278-0.4496-3.6686-0.38269-3.5379 0.28156-5.5457 2.3749-5.5457 5.7819 0 2.257 0.77104 4.4208 2.0304 5.6979l0.63661 0.6456 0.61353 0.30781c0.78603 0.39435 1.4871 0.55716 2.4058 0.55873 1.7532 3e-3 3.5451-0.62535 5.4718-1.9187 0.5257-0.35289 0.96836-0.62724 0.98366-0.60967 0.0338 0.03884 0.55818 3.3887 0.55818 3.5661 0 0.25498-0.49469 0.60526-1.6928 1.1986-2.1313 1.0555-3.6787 1.4729-5.6732 1.5302-0.67522 0.0194-1.4589 2e-3 -1.7416-0.0379zm27.152-1.2439c-0.0464-0.17852-0.87067-3.5631-1.8317-7.5212-0.96101-3.9582-1.7643-7.2576-1.7851-7.3321l-0.0378-0.13546-1.5647 0.3683c-0.86056 0.20256-2.2658 0.53333-3.1227 0.73503l-1.558 0.36673-0.46328-1.8272c-0.25482-1.005-0.45857-1.8329-0.45282-1.8399 0.0212-0.02556 17.452-4.2429 17.471-4.2269 0.0374 0.03205 0.8718 3.6308 0.84749 3.6551-0.0136 0.01357-1.3342 0.34988-2.9348 0.74736-2.7789 0.6901-3.2236 0.84364-3.2236 1.113 0 0.05863 0.68211 2.8816 1.5158 6.2734 0.83369 3.3917 1.6365 6.7002 1.7839 7.3521 0.14749 0.65193 0.28199 1.2295 0.2989 1.2834 0.0201 0.06403-0.78238 0.29563-2.3131 0.6676-1.2891 0.31324-2.3892 0.58663-2.4445 0.60752-0.0595 0.0225-0.13515-0.0946-0.18505-0.28659zm17.388-17.697c-2.2818-4.8247-4.1591-8.7979-4.1719-8.8293-0.0219-0.05381 11.964-5.771 12.221-5.8294 0.13863-0.0315 1.7756 3.2806 1.6676 3.3739-0.0358 0.0309-1.77 0.8677-3.8539 1.8596-2.0838 0.99186-3.7888 1.832-3.7888 1.867 0 0.03501 0.35243 0.78778 0.78317 1.6728l0.78316 1.6092 3.556-1.6822c1.9558-0.92524 3.5941-1.6817 3.6407-1.681 0.1358 0.0021 1.6957 3.2843 1.604 3.375-0.044 0.04346-1.6611 0.82996-3.5936 1.7478-1.9325 0.91782-3.5295 1.6821-3.5488 1.6983-0.0286 0.0241 0.71059 1.6179 3.4336 7.4033 0.0228 0.04832-4.4206 2.1973-4.5294 2.1906-0.03-0.0018-1.9214-3.9508-4.2032-8.7755z"/></g></g></svg>
